<svg xmlns="http://www.w3.org/2000/svg" viewBox="0 0 500 500" width="500" height="500"><polygon points="250,5 462.2,127.5 462.2,372.5 250,495 37.8,372.5 37.8,127.5" fill="#efe7da"></polygon><g transform="translate(250,248) scale(0.78) translate(-236,-245)">
<g stroke-width="2.00" fill="none" stroke-linecap="butt">
<path stroke="#447001" vector-effect="non-scaling-stroke" d="&#xA;  M 327.21 119.73&#xA;  Q 324.91 122.72 322.90 123.98&#xA;  Q 316.86 127.75 312.45 131.69&#xA;  C 309.97 133.91 308.18 134.52 305.23 133.60&#xA;  Q 299.47 131.79 292.59 128.57&#xA;  C 285.65 125.31 288.41 116.00 282.96 111.03&#xA;  C 278.92 107.35 272.96 104.21 267.78 101.26&#xA;  A 22.92 22.69 -9.2 0 1 264.07 98.61&#xA;  C 256.92 92.28 249.19 88.41 239.17 82.74&#xA;  C 236.60 81.29 234.43 79.51 232.96 77.27&#xA;  C 229.33 71.76 224.73 67.04 221.76 61.18"></path>
<path stroke="#3f6600" vector-effect="non-scaling-stroke" d="&#xA;  M 221.76 61.18&#xA;  Q 215.52 44.38 211.74 27.15"></path>
<path stroke="#355c01" vector-effect="non-scaling-stroke" d="&#xA;  M 221.76 61.18&#xA;  C 224.35 73.37 228.96 88.62 231.00 97.25&#xA;  Q 234.89 113.62 239.51 132.70&#xA;  C 240.71 137.65 241.05 142.88 242.50 147.84&#xA;  C 244.72 155.38 246.49 166.64 247.36 172.00&#xA;  C 248.39 178.36 250.46 185.10 251.45 190.69&#xA;  C 252.53 196.75 254.02 200.67 255.34 206.49&#xA;  Q 256.01 209.45 255.62 214.91&#xA;  A 0.57 0.56 1.1 0 1 255.08 215.42&#xA;  L 250.22 215.62"></path>
<path stroke="#8d9b54" vector-effect="non-scaling-stroke" d="&#xA;  M 250.22 215.62&#xA;  L 244.95 213.36"></path>
<path stroke="#355c01" vector-effect="non-scaling-stroke" d="&#xA;  M 244.95 213.36&#xA;  Q 243.20 211.41 240.70 210.98&#xA;  A 0.85 0.84 -82.0 0 0 239.72 211.72&#xA;  Q 239.55 213.40 240.73 214.80&#xA;  Q 245.10 219.95 245.92 221.33&#xA;  A 3.21 3.21 0.0 0 0 247.01 222.42&#xA;  C 250.41 224.46 253.71 223.90 257.05 224.78&#xA;  C 260.15 225.59 262.51 225.29 265.36 224.80&#xA;  A 0.53 0.53 0.0 0 0 265.80 224.24&#xA;  Q 265.44 218.88 269.17 214.06"></path>
<path stroke="#8d9b54" vector-effect="non-scaling-stroke" d="&#xA;  M 269.17 214.06&#xA;  Q 271.87 212.18 272.86 210.37&#xA;  Q 273.66 208.90 273.12 206.91&#xA;  Q 272.88 206.04 272.25 205.89&#xA;  Q 271.64 205.75 270.81 206.04"></path>
<path stroke="#355c01" vector-effect="non-scaling-stroke" d="&#xA;  M 270.81 206.04&#xA;  L 275.03 203.44&#xA;  A 0.72 0.71 56.9 0 1 276.00 203.65&#xA;  Q 278.05 206.66 280.92 209.06&#xA;  C 285.56 212.94 288.41 216.16 286.63 221.72&#xA;  Q 286.31 222.71 287.02 223.26&#xA;  Q 287.67 223.77 288.75 223.81"></path>
<path stroke="#335802" vector-effect="non-scaling-stroke" d="&#xA;  M 288.75 223.81&#xA;  L 284.06 224.43&#xA;  A 0.24 0.24 0.0 0 0 283.85 224.70&#xA;  L 283.85 224.71&#xA;  A 0.23 0.22 79.9 0 0 284.11 224.90&#xA;  Q 295.36 223.14 305.41 217.73&#xA;  C 307.64 216.53 310.54 215.79 312.84 215.70&#xA;  Q 320.22 215.43 321.28 214.93&#xA;  Q 326.90 212.30 331.97 211.22&#xA;  A 1.19 1.16 -32.0 0 1 332.94 211.43&#xA;  Q 347.00 222.21 354.41 238.30&#xA;  Q 360.50 251.50 363.63 258.40&#xA;  C 369.95 272.34 380.06 280.12 394.33 285.08&#xA;  Q 410.82 290.82 421.40 295.06&#xA;  C 434.33 300.24 441.97 307.24 450.55 318.84&#xA;  A 1.73 1.69 -65.4 0 1 450.90 319.82&#xA;  Q 451.42 331.65 450.44 336.22&#xA;  C 448.52 345.28 446.53 351.46 448.36 358.91"></path>
<path stroke="#355c01" vector-effect="non-scaling-stroke" d="&#xA;  M 426.57 391.41&#xA;  Q 420.89 388.54 417.39 385.11&#xA;  Q 410.89 378.75 399.64 366.23&#xA;  C 395.00 361.05 391.33 357.51 386.36 352.76&#xA;  Q 384.55 351.02 383.26 348.99&#xA;  C 378.01 340.72 375.74 336.39 370.86 331.95&#xA;  Q 358.56 320.75 354.20 316.34&#xA;  C 343.06 305.06 335.91 299.58 321.55 287.06&#xA;  Q 312.49 279.16 301.50 272.89&#xA;  A 0.66 0.66 0.0 0 0 300.68 273.90&#xA;  L 307.79 281.96"></path>
<path stroke="#2c4c01" vector-effect="non-scaling-stroke" d="&#xA;  M 307.79 281.96&#xA;  Q 296.85 272.62 286.32 262.84&#xA;  C 284.47 261.13 281.60 259.07 279.71 258.10&#xA;  Q 268.66 252.41 260.97 243.52&#xA;  A 2.97 2.93 83.6 0 0 260.18 242.88&#xA;  Q 256.44 240.78 251.73 240.08&#xA;  C 249.61 239.77 247.19 238.42 246.66 236.74&#xA;  Q 245.39 232.70 243.81 230.17&#xA;  A 0.43 0.43 0.0 0 0 243.16 230.07&#xA;  Q 236.80 235.80 227.52 244.42&#xA;  C 220.62 250.84 211.59 257.26 202.34 257.61&#xA;  C 193.80 257.94 191.66 251.69 194.67 244.74&#xA;  Q 196.78 239.87 199.11 236.30&#xA;  C 204.57 227.94 209.46 220.56 215.06 215.21&#xA;  Q 222.00 208.58 231.94 206.94&#xA;  A 1.13 1.13 0.0 0 0 232.78 206.32&#xA;  Q 233.96 203.84 233.40 201.00&#xA;  A 1.27 1.23 15.7 0 0 232.98 200.28&#xA;  L 224.17 192.97"></path>
<path stroke="#284601" vector-effect="non-scaling-stroke" d="&#xA;  M 224.17 192.97&#xA;  Q 216.44 182.01 208.80 170.95&#xA;  Q 200.82 159.40 186.94 150.12&#xA;  Q 172.11 140.21 157.48 129.70"></path>
<path stroke="#386102" vector-effect="non-scaling-stroke" d="&#xA;  M 391.83 106.19&#xA;  Q 388.74 120.65 383.79 139.40&#xA;  Q 381.15 149.37 385.88 158.13&#xA;  C 387.80 161.69 391.68 165.21 394.11 168.19&#xA;  C 400.03 175.42 390.10 179.07 384.80 180.95&#xA;  Q 370.89 185.89 355.91 187.59&#xA;  Q 344.84 188.85 332.44 184.89&#xA;  Q 311.79 178.30 298.43 162.53"></path>
<path stroke="#2d4f01" vector-effect="non-scaling-stroke" d="&#xA;  M 298.43 162.53&#xA;  L 302.34 156.26&#xA;  A 0.47 0.47 0.0 0 0 302.18 155.61&#xA;  Q 294.45 151.10 286.06 154.12&#xA;  A 1.74 1.72 -82.8 0 0 285.24 154.76&#xA;  Q 280.06 162.52 279.50 164.36&#xA;  Q 275.02 179.19 272.34 194.96&#xA;  A 0.61 0.61 0.0 0 0 273.27 195.58&#xA;  Q 275.49 194.18 277.10 191.82"></path>
<path stroke="#386102" vector-effect="non-scaling-stroke" d="&#xA;  M 277.10 191.82&#xA;  Q 275.57 198.51 272.58 204.67&#xA;  A 0.18 0.18 0.0 0 0 272.66 204.91&#xA;  A 0.17 0.17 0.0 0 0 272.88 204.85&#xA;  L 275.86 199.55&#xA;  A 0.49 0.48 33.5 0 1 276.58 199.41&#xA;  Q 278.98 201.31 280.53 203.53&#xA;  C 283.48 207.78 285.84 207.99 290.81 208.90&#xA;  C 295.12 209.69 294.65 213.65 294.79 217.12&#xA;  C 294.95 220.83 292.06 222.92 288.75 223.81"></path>
<path stroke="#92a455" vector-effect="non-scaling-stroke" d="&#xA;  M 270.81 206.04&#xA;  Q 266.35 209.75 264.90 212.47&#xA;  Q 263.62 214.86 265.15 217.80&#xA;  A 0.32 0.31 52.4 0 0 265.66 217.87&#xA;  L 269.17 214.06"></path>
<path stroke="#92a455" vector-effect="non-scaling-stroke" d="&#xA;  M 244.95 213.36&#xA;  L 243.35 213.11&#xA;  A 1.08 1.08 0.0 0 0 242.32 214.84&#xA;  L 247.89 222.14&#xA;  A 1.25 1.15 -2.5 0 0 248.26 222.45&#xA;  C 251.05 224.00 256.16 224.08 259.49 224.38&#xA;  Q 261.30 224.54 262.02 223.91&#xA;  A 1.84 1.60 50.5 0 0 262.08 221.50&#xA;  Q 261.65 220.97 259.21 218.30&#xA;  A 3.85 3.78 -14.7 0 0 257.22 217.16&#xA;  L 250.22 215.62"></path>
<path stroke="#426c02" vector-effect="non-scaling-stroke" d="&#xA;  M 422.80 245.01&#xA;  C 416.63 241.53 413.87 236.83 410.05 232.21&#xA;  Q 408.54 230.38 402.06 225.71&#xA;  A 20.76 20.21 -4.1 0 1 399.66 223.69&#xA;  Q 392.02 216.23 388.14 212.76&#xA;  Q 384.94 209.89 382.26 209.38&#xA;  C 375.84 208.15 372.90 207.96 368.44 204.09&#xA;  A 1.42 1.42 0.0 0 0 367.49 203.75&#xA;  Q 359.65 203.92 353.13 202.93&#xA;  C 347.28 202.04 343.32 202.77 338.46 205.60&#xA;  Q 337.27 206.29 337.07 207.49&#xA;  A 1.12 1.12 0.0 0 0 338.31 208.78&#xA;  C 347.83 207.64 357.68 207.96 367.24 211.21&#xA;  Q 376.93 214.50 378.68 215.41&#xA;  Q 389.29 220.95 392.30 223.69&#xA;  Q 397.57 228.48 402.76 233.26&#xA;  C 408.61 238.66 412.53 243.91 417.47 249.41&#xA;  C 419.07 251.20 419.98 252.94 421.58 255.61&#xA;  C 424.04 259.72 428.24 263.89 430.32 267.41&#xA;  C 437.43 279.48 445.81 292.39 449.40 307.05&#xA;  Q 449.95 309.30 451.75 312.00"></path>
<path stroke="#2b4b02" vector-effect="non-scaling-stroke" d="&#xA;  M 277.10 191.82&#xA;  Q 281.47 186.50 285.87 181.39&#xA;  Q 288.19 178.69 288.89 177.38&#xA;  Q 290.93 173.58 292.85 169.72&#xA;  C 294.15 167.11 296.38 164.71 298.43 162.53"></path>
<path stroke="#244002" vector-effect="non-scaling-stroke" d="&#xA;  M 224.17 192.97&#xA;  C 226.56 195.46 231.79 200.86 230.43 205.01&#xA;  A 0.46 0.46 0.0 0 1 229.78 205.27&#xA;  C 227.46 204.09 224.51 201.25 221.61 199.73&#xA;  Q 218.95 198.35 213.36 195.98&#xA;  A 4.45 4.29 76.6 0 1 212.11 195.18&#xA;  L 206.64 190.24&#xA;  A 20.21 19.35 -6.1 0 0 204.16 188.33&#xA;  Q 202.54 187.29 199.04 185.30&#xA;  C 195.67 183.40 193.60 181.35 189.72 177.91&#xA;  A 0.37 0.36 -60.6 0 0 189.13 178.08&#xA;  Q 187.94 181.95 187.40 185.54&#xA;  C 184.97 201.70 183.89 216.82 175.24 228.44&#xA;  C 166.97 239.56 149.59 241.28 136.58 242.60&#xA;  C 127.22 243.54 117.93 243.32 108.82 244.89&#xA;  C 103.61 245.78 98.41 245.87 93.25 246.90&#xA;  C 84.59 248.64 75.95 249.26 66.37 250.59&#xA;  Q 60.38 251.43 43.02 251.92&#xA;  C 35.46 252.14 27.11 253.64 20.50 252.05"></path>
<path stroke="#2b4b02" vector-effect="non-scaling-stroke" d="&#xA;  M 36.46 196.74&#xA;  Q 43.04 197.28 51.51 196.65&#xA;  C 69.59 195.30 75.30 181.96 78.98 165.96"></path>
<path stroke="#315602" vector-effect="non-scaling-stroke" d="&#xA;  M 307.79 281.96&#xA;  Q 313.39 287.48 318.96 293.04&#xA;  Q 321.84 295.90 327.59 300.16&#xA;  Q 333.12 304.25 350.70 320.77&#xA;  A 1.32 1.32 0.0 0 1 351.11 321.75&#xA;  Q 350.90 333.25 348.05 339.97&#xA;  Q 344.33 348.77 340.39 357.60&#xA;  C 333.73 372.53 333.16 389.03 347.64 399.50&#xA;  Q 357.91 406.93 368.86 413.63"></path>
<path stroke="#244002" vector-effect="non-scaling-stroke" d="&#xA;  M 232.77 465.24&#xA;  C 233.57 462.12 236.49 461.58 239.54 461.13&#xA;  Q 245.12 460.32 252.29 459.79&#xA;  A 0.61 0.60 -1.1 0 0 252.85 459.21&#xA;  Q 252.98 454.51 253.01 450.42&#xA;  C 253.08 441.83 251.79 433.57 251.70 424.95&#xA;  Q 251.46 402.14 252.43 377.73&#xA;  C 252.59 373.79 252.39 368.73 250.96 365.52&#xA;  Q 245.29 352.82 241.56 342.99&#xA;  Q 240.15 339.28 240.03 337.99&#xA;  Q 239.26 330.03 238.20 323.30&#xA;  A 7.73 7.57 -42.7 0 1 238.36 320.16&#xA;  C 239.38 316.28 240.03 314.27 240.42 310.40&#xA;  Q 241.69 297.64 246.81 285.24&#xA;  C 247.59 283.37 247.79 281.34 250.33 281.42&#xA;  A 0.66 0.65 86.2 0 1 250.95 281.97&#xA;  Q 251.88 287.14 252.87 293.80&#xA;  C 253.84 300.33 257.78 307.58 265.76 303.98&#xA;  C 271.63 301.33 275.46 295.72 272.46 289.25&#xA;  C 270.71 285.46 267.52 282.99 265.14 281.24&#xA;  C 258.79 276.58 257.22 266.46 258.27 259.17&#xA;  Q 259.78 248.59 260.09 245.65&#xA;  A 2.15 2.14 19.5 0 0 259.11 243.60&#xA;  C 255.08 241.06 248.32 240.80 243.71 241.21&#xA;  Q 238.40 241.67 235.45 245.74&#xA;  C 230.51 252.56 226.97 258.33 220.42 262.26&#xA;  Q 217.99 263.72 208.51 269.52&#xA;  C 203.27 272.73 194.97 275.28 189.70 278.77&#xA;  C 183.45 282.91 176.03 287.10 173.26 294.77&#xA;  Q 170.23 303.15 169.82 306.96&#xA;  Q 168.77 316.67 168.26 320.30&#xA;  Q 167.03 329.00 161.96 334.80"></path>
<path stroke="#2c4c01" vector-effect="non-scaling-stroke" d="&#xA;  M 154.26 333.81&#xA;  Q 150.33 321.78 146.55 313.98&#xA;  C 139.90 300.25 126.60 291.09 112.12 287.22&#xA;  Q 98.37 283.54 88.11 293.33&#xA;  Q 86.28 295.08 78.58 302.35&#xA;  C 64.18 315.96 47.86 300.01 39.39 288.87&#xA;  Q 30.50 277.18 21.81 265.24"></path>
<path stroke="#182f01" vector-effect="non-scaling-stroke" d="&#xA;  M 205.66 449.52&#xA;  C 215.58 433.29 222.39 419.71 224.47 403.29&#xA;  Q 229.47 363.93 233.21 344.45&#xA;  Q 233.82 341.33 234.25 336.31&#xA;  C 235.04 327.26 234.42 319.81 228.50 312.38&#xA;  Q 224.14 306.89 214.94 297.14&#xA;  C 201.00 282.36 196.31 297.26 189.86 307.27&#xA;  C 187.04 311.64 180.76 312.97 181.51 319.58&#xA;  Q 181.65 320.83 183.10 328.59&#xA;  C 185.22 339.96 169.83 345.33 161.71 348.18"></path>
<path stroke="#3f6600" vector-effect="non-scaling-stroke" d="&#xA;  M 277.87 209.80&#xA;  L 275.71 214.23&#xA;  A 0.50 0.50 0.0 0 0 275.94 214.89&#xA;  L 276.20 215.02&#xA;  A 7.18 2.58 26.0 0 0 283.78 215.85&#xA;  L 284.11 215.16&#xA;  A 7.18 2.58 26.0 0 0 278.79 209.70&#xA;  L 278.54 209.57&#xA;  A 0.50 0.50 0.0 0 0 277.87 209.80"></path>
<path stroke="#3f6600" vector-effect="non-scaling-stroke" d="&#xA;  M 274.70 220.91&#xA;  C 273.51 224.12 276.81 226.37 279.62 225.65&#xA;  A 1.11 1.11 0.0 0 0 280.32 224.06&#xA;  Q 279.02 221.63 276.72 220.30&#xA;  A 1.44 1.31 25.6 0 0 274.70 220.91"></path>
</g>
<path fill="#4d7a00" d="&#xA;  M 327.21 119.73&#xA;  Q 324.91 122.72 322.90 123.98&#xA;  Q 316.86 127.75 312.45 131.69&#xA;  C 309.97 133.91 308.18 134.52 305.23 133.60&#xA;  Q 299.47 131.79 292.59 128.57&#xA;  C 285.65 125.31 288.41 116.00 282.96 111.03&#xA;  C 278.92 107.35 272.96 104.21 267.78 101.26&#xA;  A 22.92 22.69 -9.2 0 1 264.07 98.61&#xA;  C 256.92 92.28 249.19 88.41 239.17 82.74&#xA;  C 236.60 81.29 234.43 79.51 232.96 77.27&#xA;  C 229.33 71.76 224.73 67.04 221.76 61.18&#xA;  Q 215.52 44.38 211.74 27.15&#xA;  C 216.50 25.04 220.07 22.82 225.87 22.03&#xA;  Q 229.67 21.50 233.28 21.25&#xA;  Q 241.58 20.65 251.50 25.74&#xA;  Q 267.23 33.79 276.78 50.00&#xA;  Q 283.02 60.60 286.29 69.47&#xA;  Q 294.80 92.60 303.70 115.82&#xA;  C 305.60 120.77 306.83 125.10 308.15 129.84&#xA;  A 0.78 0.78 0.0 0 0 309.29 130.30&#xA;  L 327.21 119.73&#xA;  Z"></path>
<path fill="#305200" d="&#xA;  M 211.74 27.15&#xA;  Q 215.52 44.38 221.76 61.18&#xA;  C 224.35 73.37 228.96 88.62 231.00 97.25&#xA;  Q 234.89 113.62 239.51 132.70&#xA;  C 240.71 137.65 241.05 142.88 242.50 147.84&#xA;  C 244.72 155.38 246.49 166.64 247.36 172.00&#xA;  C 248.39 178.36 250.46 185.10 251.45 190.69&#xA;  C 252.53 196.75 254.02 200.67 255.34 206.49&#xA;  Q 256.01 209.45 255.62 214.91&#xA;  A 0.57 0.56 1.1 0 1 255.08 215.42&#xA;  L 250.22 215.62&#xA;  L 244.95 213.36&#xA;  Q 243.20 211.41 240.70 210.98&#xA;  A 0.85 0.84 -82.0 0 0 239.72 211.72&#xA;  Q 239.55 213.40 240.73 214.80&#xA;  Q 245.10 219.95 245.92 221.33&#xA;  A 3.21 3.21 0.0 0 0 247.01 222.42&#xA;  C 250.41 224.46 253.71 223.90 257.05 224.78&#xA;  C 260.15 225.59 262.51 225.29 265.36 224.80&#xA;  A 0.53 0.53 0.0 0 0 265.80 224.24&#xA;  Q 265.44 218.88 269.17 214.06&#xA;  Q 271.87 212.18 272.86 210.37&#xA;  Q 273.66 208.90 273.12 206.91&#xA;  Q 272.88 206.04 272.25 205.89&#xA;  Q 271.64 205.75 270.81 206.04&#xA;  L 275.03 203.44&#xA;  A 0.72 0.71 56.9 0 1 276.00 203.65&#xA;  Q 278.05 206.66 280.92 209.06&#xA;  C 285.56 212.94 288.41 216.16 286.63 221.72&#xA;  Q 286.31 222.71 287.02 223.26&#xA;  Q 287.67 223.77 288.75 223.81&#xA;  L 284.06 224.43&#xA;  A 0.24 0.24 0.0 0 0 283.85 224.70&#xA;  L 283.85 224.71&#xA;  A 0.23 0.22 79.9 0 0 284.11 224.90&#xA;  Q 295.36 223.14 305.41 217.73&#xA;  C 307.64 216.53 310.54 215.79 312.84 215.70&#xA;  Q 320.22 215.43 321.28 214.93&#xA;  Q 326.90 212.30 331.97 211.22&#xA;  A 1.19 1.16 -32.0 0 1 332.94 211.43&#xA;  Q 347.00 222.21 354.41 238.30&#xA;  Q 360.50 251.50 363.63 258.40&#xA;  C 369.95 272.34 380.06 280.12 394.33 285.08&#xA;  Q 410.82 290.82 421.40 295.06&#xA;  C 434.33 300.24 441.97 307.24 450.55 318.84&#xA;  A 1.73 1.69 -65.4 0 1 450.90 319.82&#xA;  Q 451.42 331.65 450.44 336.22&#xA;  C 448.52 345.28 446.53 351.46 448.36 358.91&#xA;  C 444.24 371.44 437.37 383.50 426.57 391.41&#xA;  Q 420.89 388.54 417.39 385.11&#xA;  Q 410.89 378.75 399.64 366.23&#xA;  C 395.00 361.05 391.33 357.51 386.36 352.76&#xA;  Q 384.55 351.02 383.26 348.99&#xA;  C 378.01 340.72 375.74 336.39 370.86 331.95&#xA;  Q 358.56 320.75 354.20 316.34&#xA;  C 343.06 305.06 335.91 299.58 321.55 287.06&#xA;  Q 312.49 279.16 301.50 272.89&#xA;  A 0.66 0.66 0.0 0 0 300.68 273.90&#xA;  L 307.79 281.96&#xA;  Q 296.85 272.62 286.32 262.84&#xA;  C 284.47 261.13 281.60 259.07 279.71 258.10&#xA;  Q 268.66 252.41 260.97 243.52&#xA;  A 2.97 2.93 83.6 0 0 260.18 242.88&#xA;  Q 256.44 240.78 251.73 240.08&#xA;  C 249.61 239.77 247.19 238.42 246.66 236.74&#xA;  Q 245.39 232.70 243.81 230.17&#xA;  A 0.43 0.43 0.0 0 0 243.16 230.07&#xA;  Q 236.80 235.80 227.52 244.42&#xA;  C 220.62 250.84 211.59 257.26 202.34 257.61&#xA;  C 193.80 257.94 191.66 251.69 194.67 244.74&#xA;  Q 196.78 239.87 199.11 236.30&#xA;  C 204.57 227.94 209.46 220.56 215.06 215.21&#xA;  Q 222.00 208.58 231.94 206.94&#xA;  A 1.13 1.13 0.0 0 0 232.78 206.32&#xA;  Q 233.96 203.84 233.40 201.00&#xA;  A 1.27 1.23 15.7 0 0 232.98 200.28&#xA;  L 224.17 192.97&#xA;  Q 216.44 182.01 208.80 170.95&#xA;  Q 200.82 159.40 186.94 150.12&#xA;  Q 172.11 140.21 157.48 129.70&#xA;  C 156.64 120.37 157.57 111.16 158.28 101.87&#xA;  C 158.80 95.10 160.04 88.47 161.09 82.54&#xA;  Q 162.83 72.61 168.02 60.23&#xA;  Q 175.21 43.06 193.27 32.75&#xA;  Q 202.31 27.59 211.74 27.15&#xA;  Z&#xA;  M 277.87 209.80&#xA;  L 275.71 214.23&#xA;  A 0.50 0.50 0.0 0 0 275.94 214.89&#xA;  L 276.20 215.02&#xA;  A 7.18 2.58 26.0 0 0 283.78 215.85&#xA;  L 284.11 215.16&#xA;  A 7.18 2.58 26.0 0 0 278.79 209.70&#xA;  L 278.54 209.57&#xA;  A 0.50 0.50 0.0 0 0 277.87 209.80&#xA;  Z&#xA;  M 274.70 220.91&#xA;  C 273.51 224.12 276.81 226.37 279.62 225.65&#xA;  A 1.11 1.11 0.0 0 0 280.32 224.06&#xA;  Q 279.02 221.63 276.72 220.30&#xA;  A 1.44 1.31 25.6 0 0 274.70 220.91&#xA;  Z"></path>
<path fill="#3a6501" d="&#xA;  M 327.21 119.73&#xA;  C 342.15 110.20 358.58 103.81 376.50 104.77&#xA;  Q 380.18 104.97 391.83 106.19&#xA;  Q 388.74 120.65 383.79 139.40&#xA;  Q 381.15 149.37 385.88 158.13&#xA;  C 387.80 161.69 391.68 165.21 394.11 168.19&#xA;  C 400.03 175.42 390.10 179.07 384.80 180.95&#xA;  Q 370.89 185.89 355.91 187.59&#xA;  Q 344.84 188.85 332.44 184.89&#xA;  Q 311.79 178.30 298.43 162.53&#xA;  L 302.34 156.26&#xA;  A 0.47 0.47 0.0 0 0 302.18 155.61&#xA;  Q 294.45 151.10 286.06 154.12&#xA;  A 1.74 1.72 -82.8 0 0 285.24 154.76&#xA;  Q 280.06 162.52 279.50 164.36&#xA;  Q 275.02 179.19 272.34 194.96&#xA;  A 0.61 0.61 0.0 0 0 273.27 195.58&#xA;  Q 275.49 194.18 277.10 191.82&#xA;  Q 275.57 198.51 272.58 204.67&#xA;  A 0.18 0.18 0.0 0 0 272.66 204.91&#xA;  A 0.17 0.17 0.0 0 0 272.88 204.85&#xA;  L 275.86 199.55&#xA;  A 0.49 0.48 33.5 0 1 276.58 199.41&#xA;  Q 278.98 201.31 280.53 203.53&#xA;  C 283.48 207.78 285.84 207.99 290.81 208.90&#xA;  C 295.12 209.69 294.65 213.65 294.79 217.12&#xA;  C 294.95 220.83 292.06 222.92 288.75 223.81&#xA;  Q 287.67 223.77 287.02 223.26&#xA;  Q 286.31 222.71 286.63 221.72&#xA;  C 288.41 216.16 285.56 212.94 280.92 209.06&#xA;  Q 278.05 206.66 276.00 203.65&#xA;  A 0.72 0.71 56.9 0 0 275.03 203.44&#xA;  L 270.81 206.04&#xA;  Q 266.35 209.75 264.90 212.47&#xA;  Q 263.62 214.86 265.15 217.80&#xA;  A 0.32 0.31 52.4 0 0 265.66 217.87&#xA;  L 269.17 214.06&#xA;  Q 265.44 218.88 265.80 224.24&#xA;  A 0.53 0.53 0.0 0 1 265.36 224.80&#xA;  C 262.51 225.29 260.15 225.59 257.05 224.78&#xA;  C 253.71 223.90 250.41 224.46 247.01 222.42&#xA;  A 3.21 3.21 0.0 0 1 245.92 221.33&#xA;  Q 245.10 219.95 240.73 214.80&#xA;  Q 239.55 213.40 239.72 211.72&#xA;  A 0.85 0.84 -82.0 0 1 240.70 210.98&#xA;  Q 243.20 211.41 244.95 213.36&#xA;  L 243.35 213.11&#xA;  A 1.08 1.08 0.0 0 0 242.32 214.84&#xA;  L 247.89 222.14&#xA;  A 1.25 1.15 -2.5 0 0 248.26 222.45&#xA;  C 251.05 224.00 256.16 224.08 259.49 224.38&#xA;  Q 261.30 224.54 262.02 223.91&#xA;  A 1.84 1.60 50.5 0 0 262.08 221.50&#xA;  Q 261.65 220.97 259.21 218.30&#xA;  A 3.85 3.78 -14.7 0 0 257.22 217.16&#xA;  L 250.22 215.62&#xA;  L 255.08 215.42&#xA;  A 0.57 0.56 1.1 0 0 255.62 214.91&#xA;  Q 256.01 209.45 255.34 206.49&#xA;  C 254.02 200.67 252.53 196.75 251.45 190.69&#xA;  C 250.46 185.10 248.39 178.36 247.36 172.00&#xA;  C 246.49 166.64 244.72 155.38 242.50 147.84&#xA;  C 241.05 142.88 240.71 137.65 239.51 132.70&#xA;  Q 234.89 113.62 231.00 97.25&#xA;  C 228.96 88.62 224.35 73.37 221.76 61.18&#xA;  C 224.73 67.04 229.33 71.76 232.96 77.27&#xA;  C 234.43 79.51 236.60 81.29 239.17 82.74&#xA;  C 249.19 88.41 256.92 92.28 264.07 98.61&#xA;  A 22.92 22.69 -9.2 0 0 267.78 101.26&#xA;  C 272.96 104.21 278.92 107.35 282.96 111.03&#xA;  C 288.41 116.00 285.65 125.31 292.59 128.57&#xA;  Q 299.47 131.79 305.23 133.60&#xA;  C 308.18 134.52 309.97 133.91 312.45 131.69&#xA;  Q 316.86 127.75 322.90 123.98&#xA;  Q 324.91 122.72 327.21 119.73&#xA;  Z"></path>
<path fill="#365d03" d="&#xA;  M 422.80 245.01&#xA;  C 416.63 241.53 413.87 236.83 410.05 232.21&#xA;  Q 408.54 230.38 402.06 225.71&#xA;  A 20.76 20.21 -4.1 0 1 399.66 223.69&#xA;  Q 392.02 216.23 388.14 212.76&#xA;  Q 384.94 209.89 382.26 209.38&#xA;  C 375.84 208.15 372.90 207.96 368.44 204.09&#xA;  A 1.42 1.42 0.0 0 0 367.49 203.75&#xA;  Q 359.65 203.92 353.13 202.93&#xA;  C 347.28 202.04 343.32 202.77 338.46 205.60&#xA;  Q 337.27 206.29 337.07 207.49&#xA;  A 1.12 1.12 0.0 0 0 338.31 208.78&#xA;  C 347.83 207.64 357.68 207.96 367.24 211.21&#xA;  Q 376.93 214.50 378.68 215.41&#xA;  Q 389.29 220.95 392.30 223.69&#xA;  Q 397.57 228.48 402.76 233.26&#xA;  C 408.61 238.66 412.53 243.91 417.47 249.41&#xA;  C 419.07 251.20 419.98 252.94 421.58 255.61&#xA;  C 424.04 259.72 428.24 263.89 430.32 267.41&#xA;  C 437.43 279.48 445.81 292.39 449.40 307.05&#xA;  Q 449.95 309.30 451.75 312.00&#xA;  Q 455.97 335.91 448.36 358.91&#xA;  C 446.53 351.46 448.52 345.28 450.44 336.22&#xA;  Q 451.42 331.65 450.90 319.82&#xA;  A 1.73 1.69 -65.4 0 0 450.55 318.84&#xA;  C 441.97 307.24 434.33 300.24 421.40 295.06&#xA;  Q 410.82 290.82 394.33 285.08&#xA;  C 380.06 280.12 369.95 272.34 363.63 258.40&#xA;  Q 360.50 251.50 354.41 238.30&#xA;  Q 347.00 222.21 332.94 211.43&#xA;  A 1.19 1.16 -32.0 0 0 331.97 211.22&#xA;  Q 326.90 212.30 321.28 214.93&#xA;  Q 320.22 215.43 312.84 215.70&#xA;  C 310.54 215.79 307.64 216.53 305.41 217.73&#xA;  Q 295.36 223.14 284.11 224.90&#xA;  A 0.23 0.22 79.9 0 1 283.85 224.71&#xA;  L 283.85 224.70&#xA;  A 0.24 0.24 0.0 0 1 284.06 224.43&#xA;  L 288.75 223.81&#xA;  C 292.06 222.92 294.95 220.83 294.79 217.12&#xA;  C 294.65 213.65 295.12 209.69 290.81 208.90&#xA;  C 285.84 207.99 283.48 207.78 280.53 203.53&#xA;  Q 278.98 201.31 276.58 199.41&#xA;  A 0.49 0.48 33.5 0 0 275.86 199.55&#xA;  L 272.88 204.85&#xA;  A 0.17 0.17 0.0 0 1 272.66 204.91&#xA;  A 0.18 0.18 0.0 0 1 272.58 204.67&#xA;  Q 275.57 198.51 277.10 191.82&#xA;  Q 281.47 186.50 285.87 181.39&#xA;  Q 288.19 178.69 288.89 177.38&#xA;  Q 290.93 173.58 292.85 169.72&#xA;  C 294.15 167.11 296.38 164.71 298.43 162.53&#xA;  Q 311.79 178.30 332.44 184.89&#xA;  Q 344.84 188.85 355.91 187.59&#xA;  Q 370.89 185.89 384.80 180.95&#xA;  C 390.10 179.07 400.03 175.42 394.11 168.19&#xA;  C 391.68 165.21 387.80 161.69 385.88 158.13&#xA;  Q 381.15 149.37 383.79 139.40&#xA;  Q 388.74 120.65 391.83 106.19&#xA;  Q 401.67 107.42 411.67 108.75&#xA;  Q 417.15 109.48 421.35 110.54&#xA;  C 435.65 114.17 447.88 117.69 453.88 131.95&#xA;  C 457.50 140.55 459.24 151.37 458.31 160.81&#xA;  A 3.62 3.57 -62.2 0 0 459.11 163.46&#xA;  Q 463.36 168.60 463.33 175.78&#xA;  C 463.28 187.95 459.53 199.60 454.06 210.31&#xA;  Q 450.66 216.96 444.03 222.01&#xA;  Q 442.50 223.18 438.25 228.99&#xA;  Q 435.00 233.44 428.78 240.30&#xA;  A 16.84 16.74 3.3 0 1 426.08 242.69&#xA;  L 422.80 245.01&#xA;  Z"></path>
<path fill="#203901" d="&#xA;  M 224.17 192.97&#xA;  C 226.56 195.46 231.79 200.86 230.43 205.01&#xA;  A 0.46 0.46 0.0 0 1 229.78 205.27&#xA;  C 227.46 204.09 224.51 201.25 221.61 199.73&#xA;  Q 218.95 198.35 213.36 195.98&#xA;  A 4.45 4.29 76.6 0 1 212.11 195.18&#xA;  L 206.64 190.24&#xA;  A 20.21 19.35 -6.1 0 0 204.16 188.33&#xA;  Q 202.54 187.29 199.04 185.30&#xA;  C 195.67 183.40 193.60 181.35 189.72 177.91&#xA;  A 0.37 0.36 -60.6 0 0 189.13 178.08&#xA;  Q 187.94 181.95 187.40 185.54&#xA;  C 184.97 201.70 183.89 216.82 175.24 228.44&#xA;  C 166.97 239.56 149.59 241.28 136.58 242.60&#xA;  C 127.22 243.54 117.93 243.32 108.82 244.89&#xA;  C 103.61 245.78 98.41 245.87 93.25 246.90&#xA;  C 84.59 248.64 75.95 249.26 66.37 250.59&#xA;  Q 60.38 251.43 43.02 251.92&#xA;  C 35.46 252.14 27.11 253.64 20.50 252.05&#xA;  Q 18.68 240.27 20.16 228.58&#xA;  C 21.77 215.88 27.91 205.94 36.46 196.74&#xA;  Q 43.04 197.28 51.51 196.65&#xA;  C 69.59 195.30 75.30 181.96 78.98 165.96&#xA;  Q 85.58 162.89 97.00 158.28&#xA;  Q 117.70 149.92 139.06 150.10&#xA;  C 148.05 150.17 157.09 151.87 166.89 153.46&#xA;  A 0.69 0.68 80.2 0 0 167.60 152.45&#xA;  Q 165.31 148.32 162.60 144.69&#xA;  Q 158.41 139.05 157.48 129.70&#xA;  Q 172.11 140.21 186.94 150.12&#xA;  Q 200.82 159.40 208.80 170.95&#xA;  Q 216.44 182.01 224.17 192.97&#xA;  Z"></path>
<path fill="#203901" d="&#xA;  M 298.43 162.53&#xA;  C 296.38 164.71 294.15 167.11 292.85 169.72&#xA;  Q 290.93 173.58 288.89 177.38&#xA;  Q 288.19 178.69 285.87 181.39&#xA;  Q 281.47 186.50 277.10 191.82&#xA;  Q 275.49 194.18 273.27 195.58&#xA;  A 0.61 0.61 0.0 0 1 272.34 194.96&#xA;  Q 275.02 179.19 279.50 164.36&#xA;  Q 280.06 162.52 285.24 154.76&#xA;  A 1.74 1.72 -82.8 0 1 286.06 154.12&#xA;  Q 294.45 151.10 302.18 155.61&#xA;  A 0.47 0.47 0.0 0 1 302.34 156.26&#xA;  L 298.43 162.53&#xA;  Z"></path>
<path fill="#365d03" d="&#xA;  M 78.98 165.96&#xA;  C 75.30 181.96 69.59 195.30 51.51 196.65&#xA;  Q 43.04 197.28 36.46 196.74&#xA;  C 48.12 184.11 63.77 173.69 78.98 165.96&#xA;  Z"></path>
<path fill="#274602" d="&#xA;  M 224.17 192.97&#xA;  L 232.98 200.28&#xA;  A 1.27 1.23 15.7 0 1 233.40 201.00&#xA;  Q 233.96 203.84 232.78 206.32&#xA;  A 1.13 1.13 0.0 0 1 231.94 206.94&#xA;  Q 222.00 208.58 215.06 215.21&#xA;  C 209.46 220.56 204.57 227.94 199.11 236.30&#xA;  Q 196.78 239.87 194.67 244.74&#xA;  C 191.66 251.69 193.80 257.94 202.34 257.61&#xA;  C 211.59 257.26 220.62 250.84 227.52 244.42&#xA;  Q 236.80 235.80 243.16 230.07&#xA;  A 0.43 0.43 0.0 0 1 243.81 230.17&#xA;  Q 245.39 232.70 246.66 236.74&#xA;  C 247.19 238.42 249.61 239.77 251.73 240.08&#xA;  Q 256.44 240.78 260.18 242.88&#xA;  A 2.97 2.93 83.6 0 1 260.97 243.52&#xA;  Q 268.66 252.41 279.71 258.10&#xA;  C 281.60 259.07 284.47 261.13 286.32 262.84&#xA;  Q 296.85 272.62 307.79 281.96&#xA;  Q 313.39 287.48 318.96 293.04&#xA;  Q 321.84 295.90 327.59 300.16&#xA;  Q 333.12 304.25 350.70 320.77&#xA;  A 1.32 1.32 0.0 0 1 351.11 321.75&#xA;  Q 350.90 333.25 348.05 339.97&#xA;  Q 344.33 348.77 340.39 357.60&#xA;  C 333.73 372.53 333.16 389.03 347.64 399.50&#xA;  Q 357.91 406.93 368.86 413.63&#xA;  Q 350.88 414.45 333.36 412.79&#xA;  A 5.08 5.07 28.7 0 0 329.76 413.84&#xA;  Q 328.33 414.96 326.96 416.97&#xA;  C 320.91 425.82 315.99 433.88 308.92 442.42&#xA;  Q 293.03 461.62 269.45 467.24&#xA;  C 263.82 468.58 258.94 468.03 252.78 467.31&#xA;  A 14.01 13.75 -42.8 0 0 250.37 467.24&#xA;  Q 241.38 467.83 232.77 465.24&#xA;  C 233.57 462.12 236.49 461.58 239.54 461.13&#xA;  Q 245.12 460.32 252.29 459.79&#xA;  A 0.61 0.60 -1.1 0 0 252.85 459.21&#xA;  Q 252.98 454.51 253.01 450.42&#xA;  C 253.08 441.83 251.79 433.57 251.70 424.95&#xA;  Q 251.46 402.14 252.43 377.73&#xA;  C 252.59 373.79 252.39 368.73 250.96 365.52&#xA;  Q 245.29 352.82 241.56 342.99&#xA;  Q 240.15 339.28 240.03 337.99&#xA;  Q 239.26 330.03 238.20 323.30&#xA;  A 7.73 7.57 -42.7 0 1 238.36 320.16&#xA;  C 239.38 316.28 240.03 314.27 240.42 310.40&#xA;  Q 241.69 297.64 246.81 285.24&#xA;  C 247.59 283.37 247.79 281.34 250.33 281.42&#xA;  A 0.66 0.65 86.2 0 1 250.95 281.97&#xA;  Q 251.88 287.14 252.87 293.80&#xA;  C 253.84 300.33 257.78 307.58 265.76 303.98&#xA;  C 271.63 301.33 275.46 295.72 272.46 289.25&#xA;  C 270.71 285.46 267.52 282.99 265.14 281.24&#xA;  C 258.79 276.58 257.22 266.46 258.27 259.17&#xA;  Q 259.78 248.59 260.09 245.65&#xA;  A 2.15 2.14 19.5 0 0 259.11 243.60&#xA;  C 255.08 241.06 248.32 240.80 243.71 241.21&#xA;  Q 238.40 241.67 235.45 245.74&#xA;  C 230.51 252.56 226.97 258.33 220.42 262.26&#xA;  Q 217.99 263.72 208.51 269.52&#xA;  C 203.27 272.73 194.97 275.28 189.70 278.77&#xA;  C 183.45 282.91 176.03 287.10 173.26 294.77&#xA;  Q 170.23 303.15 169.82 306.96&#xA;  Q 168.77 316.67 168.26 320.30&#xA;  Q 167.03 329.00 161.96 334.80&#xA;  Q 158.86 333.27 154.26 333.81&#xA;  Q 150.33 321.78 146.55 313.98&#xA;  C 139.90 300.25 126.60 291.09 112.12 287.22&#xA;  Q 98.37 283.54 88.11 293.33&#xA;  Q 86.28 295.08 78.58 302.35&#xA;  C 64.18 315.96 47.86 300.01 39.39 288.87&#xA;  Q 30.50 277.18 21.81 265.24&#xA;  L 20.50 252.05&#xA;  C 27.11 253.64 35.46 252.14 43.02 251.92&#xA;  Q 60.38 251.43 66.37 250.59&#xA;  C 75.95 249.26 84.59 248.64 93.25 246.90&#xA;  C 98.41 245.87 103.61 245.78 108.82 244.89&#xA;  C 117.93 243.32 127.22 243.54 136.58 242.60&#xA;  C 149.59 241.28 166.97 239.56 175.24 228.44&#xA;  C 183.89 216.82 184.97 201.70 187.40 185.54&#xA;  Q 187.94 181.95 189.13 178.08&#xA;  A 0.37 0.36 -60.6 0 1 189.72 177.91&#xA;  C 193.60 181.35 195.67 183.40 199.04 185.30&#xA;  Q 202.54 187.29 204.16 188.33&#xA;  A 20.21 19.35 -6.1 0 1 206.64 190.24&#xA;  L 212.11 195.18&#xA;  A 4.45 4.29 76.6 0 0 213.36 195.98&#xA;  Q 218.95 198.35 221.61 199.73&#xA;  C 224.51 201.25 227.46 204.09 229.78 205.27&#xA;  A 0.46 0.46 0.0 0 0 230.43 205.01&#xA;  C 231.79 200.86 226.56 195.46 224.17 192.97&#xA;  Z"></path>
<path fill="#4d7a00" d="&#xA;  M 422.80 245.01&#xA;  C 420.38 247.92 422.03 251.18 423.96 254.07&#xA;  Q 435.69 271.63 444.41 289.61&#xA;  Q 449.45 300.00 451.75 312.00&#xA;  Q 449.95 309.30 449.40 307.05&#xA;  C 445.81 292.39 437.43 279.48 430.32 267.41&#xA;  C 428.24 263.89 424.04 259.72 421.58 255.61&#xA;  C 419.98 252.94 419.07 251.20 417.47 249.41&#xA;  C 412.53 243.91 408.61 238.66 402.76 233.26&#xA;  Q 397.57 228.48 392.30 223.69&#xA;  Q 389.29 220.95 378.68 215.41&#xA;  Q 376.93 214.50 367.24 211.21&#xA;  C 357.68 207.96 347.83 207.64 338.31 208.78&#xA;  A 1.12 1.12 0.0 0 1 337.07 207.49&#xA;  Q 337.27 206.29 338.46 205.60&#xA;  C 343.32 202.77 347.28 202.04 353.13 202.93&#xA;  Q 359.65 203.92 367.49 203.75&#xA;  A 1.42 1.42 0.0 0 1 368.44 204.09&#xA;  C 372.90 207.96 375.84 208.15 382.26 209.38&#xA;  Q 384.94 209.89 388.14 212.76&#xA;  Q 392.02 216.23 399.66 223.69&#xA;  A 20.76 20.21 -4.1 0 0 402.06 225.71&#xA;  Q 408.54 230.38 410.05 232.21&#xA;  C 413.87 236.83 416.63 241.53 422.80 245.01&#xA;  Z"></path>
<path fill="#eae3a8" d="&#xA;  M 269.17 214.06&#xA;  L 265.66 217.87&#xA;  A 0.32 0.31 52.4 0 1 265.15 217.80&#xA;  Q 263.62 214.86 264.90 212.47&#xA;  Q 266.35 209.75 270.81 206.04&#xA;  Q 271.64 205.75 272.25 205.89&#xA;  Q 272.88 206.04 273.12 206.91&#xA;  Q 273.66 208.90 272.86 210.37&#xA;  Q 271.87 212.18 269.17 214.06&#xA;  Z"></path>
<path fill="#4d7a00" d="&#xA;  M 277.87 209.80&#xA;  A 0.50 0.50 0.0 0 1 278.54 209.57&#xA;  L 278.79 209.70&#xA;  A 7.18 2.58 26.0 0 1 284.11 215.16&#xA;  L 283.78 215.85&#xA;  A 7.18 2.58 26.0 0 1 276.20 215.02&#xA;  L 275.94 214.89&#xA;  A 0.50 0.50 0.0 0 1 275.71 214.23&#xA;  L 277.87 209.80&#xA;  Z"></path>
<path fill="#eae3a8" d="&#xA;  M 244.95 213.36&#xA;  L 250.22 215.62&#xA;  L 257.22 217.16&#xA;  A 3.85 3.78 -14.7 0 1 259.21 218.30&#xA;  Q 261.65 220.97 262.08 221.50&#xA;  A 1.84 1.60 50.5 0 1 262.02 223.91&#xA;  Q 261.30 224.54 259.49 224.38&#xA;  C 256.16 224.08 251.05 224.00 248.26 222.45&#xA;  A 1.25 1.15 -2.5 0 1 247.89 222.14&#xA;  L 242.32 214.84&#xA;  A 1.08 1.08 0.0 0 1 243.35 213.11&#xA;  L 244.95 213.36&#xA;  Z"></path>
<path fill="#4d7a00" d="&#xA;  M 279.62 225.65&#xA;  C 276.81 226.37 273.51 224.12 274.70 220.91&#xA;  A 1.44 1.31 25.6 0 1 276.72 220.30&#xA;  Q 279.02 221.63 280.32 224.06&#xA;  A 1.11 1.11 0.0 0 1 279.62 225.65&#xA;  Z"></path>
<path fill="#203901" d="&#xA;  M 232.77 465.24&#xA;  Q 217.25 460.90 205.66 449.52&#xA;  C 215.58 433.29 222.39 419.71 224.47 403.29&#xA;  Q 229.47 363.93 233.21 344.45&#xA;  Q 233.82 341.33 234.25 336.31&#xA;  C 235.04 327.26 234.42 319.81 228.50 312.38&#xA;  Q 224.14 306.89 214.94 297.14&#xA;  C 201.00 282.36 196.31 297.26 189.86 307.27&#xA;  C 187.04 311.64 180.76 312.97 181.51 319.58&#xA;  Q 181.65 320.83 183.10 328.59&#xA;  C 185.22 339.96 169.83 345.33 161.71 348.18&#xA;  L 161.96 334.80&#xA;  Q 167.03 329.00 168.26 320.30&#xA;  Q 168.77 316.67 169.82 306.96&#xA;  Q 170.23 303.15 173.26 294.77&#xA;  C 176.03 287.10 183.45 282.91 189.70 278.77&#xA;  C 194.97 275.28 203.27 272.73 208.51 269.52&#xA;  Q 217.99 263.72 220.42 262.26&#xA;  C 226.97 258.33 230.51 252.56 235.45 245.74&#xA;  Q 238.40 241.67 243.71 241.21&#xA;  C 248.32 240.80 255.08 241.06 259.11 243.60&#xA;  A 2.15 2.14 19.5 0 1 260.09 245.65&#xA;  Q 259.78 248.59 258.27 259.17&#xA;  C 257.22 266.46 258.79 276.58 265.14 281.24&#xA;  C 267.52 282.99 270.71 285.46 272.46 289.25&#xA;  C 275.46 295.72 271.63 301.33 265.76 303.98&#xA;  C 257.78 307.58 253.84 300.33 252.87 293.80&#xA;  Q 251.88 287.14 250.95 281.97&#xA;  A 0.66 0.65 86.2 0 0 250.33 281.42&#xA;  C 247.79 281.34 247.59 283.37 246.81 285.24&#xA;  Q 241.69 297.64 240.42 310.40&#xA;  C 240.03 314.27 239.38 316.28 238.36 320.16&#xA;  A 7.73 7.57 -42.7 0 0 238.20 323.30&#xA;  Q 239.26 330.03 240.03 337.99&#xA;  Q 240.15 339.28 241.56 342.99&#xA;  Q 245.29 352.82 250.96 365.52&#xA;  C 252.39 368.73 252.59 373.79 252.43 377.73&#xA;  Q 251.46 402.14 251.70 424.95&#xA;  C 251.79 433.57 253.08 441.83 253.01 450.42&#xA;  Q 252.98 454.51 252.85 459.21&#xA;  A 0.61 0.60 -1.1 0 1 252.29 459.79&#xA;  Q 245.12 460.32 239.54 461.13&#xA;  C 236.49 461.58 233.57 462.12 232.77 465.24&#xA;  Z"></path>
<path fill="#305200" d="&#xA;  M 154.26 333.81&#xA;  Q 126.43 334.69 104.43 333.16&#xA;  Q 86.20 331.89 67.82 322.91&#xA;  Q 55.80 317.04 42.16 304.18&#xA;  C 34.85 297.30 28.19 287.40 24.87 278.84&#xA;  Q 22.99 274.02 21.81 265.24&#xA;  Q 30.50 277.18 39.39 288.87&#xA;  C 47.86 300.01 64.18 315.96 78.58 302.35&#xA;  Q 86.28 295.08 88.11 293.33&#xA;  Q 98.37 283.54 112.12 287.22&#xA;  C 126.60 291.09 139.90 300.25 146.55 313.98&#xA;  Q 150.33 321.78 154.26 333.81&#xA;  Z"></path>
<path fill="#3a6501" d="&#xA;  M 426.57 391.41&#xA;  Q 409.39 408.53 386.26 412.30&#xA;  Q 378.84 413.51 368.86 413.63&#xA;  Q 357.91 406.93 347.64 399.50&#xA;  C 333.16 389.03 333.73 372.53 340.39 357.60&#xA;  Q 344.33 348.77 348.05 339.97&#xA;  Q 350.90 333.25 351.11 321.75&#xA;  A 1.32 1.32 0.0 0 0 350.70 320.77&#xA;  Q 333.12 304.25 327.59 300.16&#xA;  Q 321.84 295.90 318.96 293.04&#xA;  Q 313.39 287.48 307.79 281.96&#xA;  L 300.68 273.90&#xA;  A 0.66 0.66 0.0 0 1 301.50 272.89&#xA;  Q 312.49 279.16 321.55 287.06&#xA;  C 335.91 299.58 343.06 305.06 354.20 316.34&#xA;  Q 358.56 320.75 370.86 331.95&#xA;  C 375.74 336.39 378.01 340.72 383.26 348.99&#xA;  Q 384.55 351.02 386.36 352.76&#xA;  C 391.33 357.51 395.00 361.05 399.64 366.23&#xA;  Q 410.89 378.75 417.39 385.11&#xA;  Q 420.89 388.54 426.57 391.41&#xA;  Z"></path>
<path fill="#0f2401" d="&#xA;  M 205.66 449.52&#xA;  Q 197.78 441.56 190.99 432.63&#xA;  Q 182.69 421.72 178.17 414.27&#xA;  C 168.70 398.68 164.01 380.14 162.12 361.98&#xA;  Q 161.33 354.47 161.71 348.18&#xA;  C 169.83 345.33 185.22 339.96 183.10 328.59&#xA;  Q 181.65 320.83 181.51 319.58&#xA;  C 180.76 312.97 187.04 311.64 189.86 307.27&#xA;  C 196.31 297.26 201.00 282.36 214.94 297.14&#xA;  Q 224.14 306.89 228.50 312.38&#xA;  C 234.42 319.81 235.04 327.26 234.25 336.31&#xA;  Q 233.82 341.33 233.21 344.45&#xA;  Q 229.47 363.93 224.47 403.29&#xA;  C 222.39 419.71 215.58 433.29 205.66 449.52&#xA;  Z"></path>
</g></svg>