<?xml version="1.0" encoding="utf-8" ?><svg xmlns="http://www.w3.org/2000/svg" xmlns:xlink="http://www.w3.org/1999/xlink" width="2048" height="2048" viewBox="0 0 2048 2048"><path fill="#FEFEFE" d="M0 0L2048 0L2048 2048L0 2048L0 0Z"/><path fill="#B38C52" d="M972.242 44.834C979.672 46.1968 1133.52 137.76 1147.52 145.899L1814.39 534.095L1814.41 1513.7L973.411 2002.74C968.221 2002.36 211.823 1560.53 131.958 1514.03L131.909 534.196C165.092 513.177 204.362 491.439 238.604 471.519L431.535 359.443L972.242 44.834Z"/><path fill="#FEFEFE" d="M972.756 67.8278C1001.08 83.4435 1031.47 101.961 1059.65 118.394L1221.37 212.5L1794.53 545.868L1794.39 1502.02L974.386 1978.55L973.792 1978.82C970.48 1979.05 889.546 1930.99 881.073 1926.05L704.726 1823.46L151.879 1502.07L151.895 545.238L972.756 67.8278Z"/><path fill="#424D3B" d="M938.68 283.428C982.444 279.698 1025.37 299.061 1057.89 327.225C1079.86 346.178 1098.86 368.307 1114.28 392.879C1151.88 452.419 1185.88 558.588 1191.2 629.262C1204.96 619.399 1219.27 610.32 1234.05 602.067C1304.01 562.978 1373.21 543.642 1453.53 551.144C1482.38 553.838 1510.52 557.666 1539.51 558.308C1554.82 558.648 1574.1 562.147 1588.8 566.386C1627.35 577.104 1659.93 602.965 1679.11 638.084C1685.32 649.574 1690.28 661.699 1693.9 674.248C1701.7 700.904 1713.67 775.952 1713.65 802.718C1713.67 825.299 1710.49 847.769 1704.18 869.451C1686.04 931.068 1643.23 977.363 1587.64 1007.85C1623.92 1057.88 1639.48 1101.8 1653.8 1161.05C1658.73 1172.82 1663.55 1186.95 1668.95 1198.34C1720.57 1307.19 1669.84 1428.45 1576.3 1497.24C1493.69 1557.99 1386.47 1568.71 1285.93 1552.83C1242.76 1618.44 1191.48 1676.06 1122.62 1715.18C954.793 1801.9 828.234 1692.79 742.723 1555.72C694.059 1477.71 665.739 1390.44 687.595 1298.35C611.695 1314.16 528.337 1304.96 452.673 1292.24C373.491 1278.94 322.299 1225.23 279.007 1161.75C237.464 1100.84 217.487 1028.48 232.236 954.891C244.349 891.878 281.589 836.509 335.383 801.529C367.14 780.444 395.24 768.637 428.825 752.696C511.097 713.646 599.2 684.484 691.473 703.248C665.874 631.748 675.018 552.618 691.571 480.457C700.145 443.081 711.124 406.913 736.869 377.365C745.272 367.652 754.845 359.017 765.369 351.656C796.807 329.786 837.208 314.615 872.224 299.077C892.976 289.87 916.061 285.087 938.68 283.428Z"/><path fill="#FEFEFE" d="M1319.73 911.449C1398.15 907.688 1477.38 938.063 1535.53 990.478C1573.48 1025.08 1601.33 1069.33 1616.11 1118.52C1621.39 1135.53 1624.81 1154.62 1630.85 1170.92C1644.44 1207.59 1664.03 1243.8 1665.33 1283.81C1667.25 1342.93 1637.15 1402.43 1598.08 1445.03C1541.21 1428.41 1504.26 1408.2 1457.51 1373.4C1369.66 1303.85 1319.22 1215.83 1239.55 1140.61C1174.08 1078.8 1100.57 1048.22 1037.45 980.064C1058.92 978.412 1077.04 977.106 1098.25 971.522C1132.08 962.613 1165.31 948.78 1198.19 936.65C1239.03 921.58 1276.31 913.387 1319.73 911.449Z"/><path fill="#FEFEFE" d="M1022.31 994.509C1024.94 995.982 1030.37 1002.57 1032.69 1005.03C1046.65 1019.81 1062.18 1033.05 1078.62 1045.05C1131.4 1083.61 1188.38 1116.18 1235.74 1161.75C1266.4 1191.24 1294.53 1223.16 1322.5 1255.19C1383.49 1326.5 1447.41 1391.17 1535.87 1427.29C1556.02 1435.52 1575.7 1440.8 1596.78 1446.57C1568.62 1475.63 1545.43 1490.08 1509.59 1507.03C1453.71 1530.16 1405.23 1537.65 1344.62 1533.84C1192.32 1524.25 1002.31 1471.27 966.524 1298.61C943.887 1189.4 1015.53 1100.69 1022.31 994.509Z"/><path fill="#FEFEFE" d="M786.894 975.558C850.971 973.02 917.399 980.022 982.452 979.882C964.18 1000.47 949.259 1030.01 939.164 1055.87C910.918 1128.2 890.234 1170.54 823.854 1215.69C710.41 1292.86 579.357 1292.82 448.701 1266.23C395.025 1253.32 363.753 1227.26 328.919 1186.12C289.064 1139.06 266.176 1096.48 254.934 1035.05C395.93 1082.62 537.165 1020.69 673.453 988.843C708.776 980.588 750.707 977.068 786.894 975.558Z"/><path fill="#FEFEFE" d="M624.516 722.435C644.927 721.042 671.327 724.534 691.528 728.412C763.342 742.195 818.967 788.489 866.008 841.696C882.894 860.796 898.933 881.287 916.32 900.148C935.83 921.377 957.037 940.982 979.729 958.769C922.801 959.009 867.299 955.235 809.757 956.047C715.612 957.375 654.784 974.644 567.09 1001.77C555.736 1005.86 543.256 1009.38 531.694 1013.02C442.639 1041.05 346 1059.18 254.36 1032.15C247.594 969.1 263.472 906.76 306.527 858.888C318.902 845.229 332.935 833.171 348.301 822.993C374.952 805.165 401.668 793.814 429.903 779.828C494.395 747.883 552.099 726.575 624.516 722.435Z"/><path fill="#FEFEFE" d="M995.654 1002.76C1000.12 1030.36 961.677 1127.83 953.632 1155.02C927.938 1241.87 930.206 1325.57 983.538 1401.45C987.618 1407.26 996.653 1451.75 1000.12 1463.09C1029.27 1558.32 1028.8 1627.3 996.746 1720.79C939.712 1717.02 897.513 1693.42 855.382 1655.76C764.311 1567.2 674.884 1423.98 714.485 1292.47C805.735 1267.3 897.281 1210.68 938.142 1122.53C956.775 1082.33 969.567 1038.72 995.654 1002.76Z"/><path fill="#FEFEFE" d="M1403.13 574.425C1444.02 571.404 1484.91 581.065 1525.64 582.302C1541.43 582.782 1556.68 584.089 1572.13 587.662C1587.78 591.169 1602.67 597.441 1616.11 606.182C1653.75 630.824 1666.96 664.484 1675.54 706.164C1618.18 758.405 1542.64 793.767 1465.74 804.027C1404.93 812.14 1343.64 816.289 1283.35 828.646C1257.79 833.885 1232.56 840.253 1207.25 846.592C1138.01 865.842 1080.72 891.168 1025.97 939.157C1042.24 874.097 1066.02 851.019 1114.35 807.359C1161.44 764.828 1188.2 726.317 1191.35 661.377C1250.49 613.231 1326.72 579.757 1403.13 574.425Z"/><path fill="#FEFEFE" d="M939.93 308.433C976.832 305.327 1011.56 321.172 1039.17 344.651C1057.82 360.336 1074.19 378.549 1087.81 398.761C1124.45 453.432 1160.06 556.965 1165.43 623.615C1171.76 702.274 1152.74 737.227 1096.27 789.288C1081.18 803.204 1064.55 817.912 1051.21 833.439C1033.25 855.259 1024.26 871.099 1012.4 896.305C1000.05 769.358 928.868 656.514 900.019 533.719C883.011 461.325 881.434 388.118 898.977 315.78C914.642 311.382 923.71 309.686 939.93 308.433Z"/><path fill="#FEFEFE" d="M892.587 317.838L894.611 318.085C894.333 322.388 886.002 354.811 884.454 364.077C877.275 402.714 877.342 440.711 879.687 479.771C886.976 601.226 950.505 707.154 980.153 822.414C990.11 860.808 995.476 900.248 996.138 939.906C957.886 909.339 939.204 889.168 907.708 852.134C854.513 787.245 802.092 735.638 720.069 709.404C694.345 643.321 696.93 576.977 711.376 508.813C719.358 466.545 731.959 414.521 765.245 384.302C797.77 354.773 852.3 335.134 892.587 317.838Z"/><path fill="#FEFEFE" d="M1675.56 708.658C1678.23 715.804 1679.16 729.378 1680.88 737.23C1705.56 849.843 1671.36 929.954 1570.6 988.915C1538.84 956.844 1507.2 933.384 1465.62 914.778C1396.39 883.8 1317.96 879.717 1244.61 897.062C1208.69 905.555 1172.84 919.642 1138.35 932.958C1103.88 946.016 1079.67 953.104 1042.55 954.372C1129.28 868.039 1275.33 845.559 1390.53 827.782C1434.9 820.936 1483.96 815.712 1526.56 801.401C1582.74 782.439 1633.74 750.691 1675.56 708.658Z"/><path fill="#FEFEFE" d="M1010.81 1435.45C1013.99 1437.35 1026.19 1449.22 1029.77 1452.47C1037.98 1459.91 1046.66 1466.81 1055.76 1473.12C1119.82 1516.92 1183.04 1535.44 1258.79 1548.94C1228.5 1592.16 1203.34 1622.17 1163.37 1656.81C1112.08 1698.74 1066.6 1720.74 999.292 1720.96C1048.19 1609.06 1032.96 1548.38 1010.81 1435.45Z"/></svg>