<?xml version="1.0" encoding="utf-8" ?><svg xmlns="http://www.w3.org/2000/svg" xmlns:xlink="http://www.w3.org/1999/xlink" width="2048" height="2048" viewBox="0 0 2048 2048"><path fill="#B38C52" d="M971.4 44.0956C993.261 52.9725 1023.85 72.525 1044.74 85.0279L1129.32 134.866L1391.53 287.938L1717.98 477.905C1738 489.749 1758.37 501.111 1778.44 512.802C1787.4 518.02 1807.18 528.723 1814.31 535.156C1812.35 692.417 1813.7 851.045 1813.58 1008.47L1813.54 1513.14C1801.56 1521.49 1782.02 1531.93 1768.75 1539.55L1698.11 1580.69C1608.69 1633.29 1518.95 1685.35 1428.89 1736.88L1101.2 1927.92C1062.09 1950.49 1013.7 1980.7 974.409 2001.27C966.983 2000.16 931.428 1979.5 922.975 1974.69C825.219 1918.6 727.816 1861.9 630.771 1804.59L340.639 1635.44C290.772 1606.81 241.097 1577.86 191.616 1548.57C180.623 1542.12 139.405 1519.08 131.559 1512.47C129.844 1463.27 131.594 1406.49 131.556 1356.72L131.244 1046.83L131.376 686.694C131.604 636.909 130.617 583.091 132.225 533.697C153.458 518.424 199.859 493.467 223.414 480.005L367.949 395.968L801.201 143.832C858.671 110.15 914.38 78.9124 971.4 44.0956ZM152.026 1500.77C165.943 1511.24 193.064 1526.16 208.728 1535.25L315.644 1596.95L679.907 1808.52L900.45 1937.19C916.651 1946.37 932.773 1955.69 948.815 1965.14C953.317 1967.81 970.553 1978.43 974.466 1980.03C985.59 1972.08 1001.03 1963.4 1012.99 1956.23L1088.22 1911.96L1300.95 1788.35L1683.47 1566.51C1719.37 1546.06 1758.76 1521 1794.81 1501.72C1794.17 1424.54 1793.96 1347.36 1794.19 1270.18L1794.14 795.561C1794.14 713.344 1795.01 629.11 1793.95 547.009C1785.59 539.936 1745.46 517.504 1732.99 510.24C1689.05 484.175 1644.86 458.52 1600.43 433.277L1150.47 171.778C1108.58 147.628 1066.92 123.061 1025.52 98.0818C1016.71 92.888 980.079 70.5093 972.104 67.9307L472.108 359.028L284.213 468.397C253.738 485.916 222.934 502.527 192.96 521.007C179.608 529.24 165.167 536.882 152.252 545.734C151.045 622.774 152.02 702.002 152.075 779.294L152.091 1145.76L152.007 1380.34C151.949 1418.4 150.618 1463.5 152.026 1500.77Z"/><path fill="#424D3B" d="M945.418 283.426C967.864 283.258 986.473 286.048 1007.16 295.435C1103.31 339.056 1148.87 445.238 1174.57 541.198C1182.52 570.855 1188.74 600.066 1190.21 630.668C1194.35 627.552 1198.58 624.544 1202.88 621.647C1269.48 577.451 1335.52 551.716 1416.52 549.658C1442.36 548.441 1468.67 554.129 1494.02 555.282C1562.28 558.39 1630.16 562.684 1671.79 626.569C1680.24 639.428 1687.06 653.281 1692.11 667.815C1703.1 700.13 1713.29 770.824 1713.76 804.601C1714.69 871.135 1676.86 946.229 1622.63 984.424C1611.6 992.197 1599.95 999.926 1588.22 1007.44C1625.71 1062.54 1638.91 1104.76 1657 1168.23C1665.17 1196.87 1683.2 1223.26 1686.49 1255.25C1690.02 1278.17 1690.7 1302.32 1685.87 1325.32C1646.42 1513.48 1459.44 1583.02 1285.57 1551.94C1241.49 1621.43 1189.53 1675.75 1118.03 1716.5C1071.93 1739.9 1028.37 1750.55 976.679 1743.63C892.531 1732.38 827.155 1671.08 777.752 1606.02C720.11 1530.12 671.733 1435.67 681.815 1337.52C683.169 1324.34 684.975 1311.11 686.725 1297.99C610.883 1311.8 549.155 1306.5 473.175 1295.62C381.846 1282.56 337.732 1242.24 285.402 1171.3C199.163 1054.4 206.565 892.839 330.297 805.248C360.489 783.786 391.428 770.368 424.698 754.195C507.336 714.023 599.126 685.78 691.741 702.249C668.138 634.866 673.503 572.693 686.12 503.754C694.295 459.083 707.554 407.981 739.315 374.172C747.738 365.275 757.107 357.325 767.257 350.464C793.467 332.895 863.515 300.418 894.011 291.73C910.735 286.839 928.004 284.049 945.418 283.426ZM1559.64 1431.4C1564.78 1435.25 1568.79 1437.06 1575.14 1437.93L1574.03 1439L1574.42 1437.71L1573.56 1439.04L1573.96 1438.93C1566.02 1439.54 1558.25 1432.81 1553.99 1434.46C1528.03 1424.75 1507.65 1415.76 1483.66 1401.96C1375.53 1339.74 1312.17 1229.49 1220.43 1148.68C1176.15 1109.67 1125.07 1079.21 1077.53 1044.51C1058.72 1030.67 1039.18 1011.43 1022.39 995.238C1018.04 1023.39 1012.58 1054.2 1003.94 1081.48C980.201 1156.37 948.676 1224.11 967.464 1304.64C1000.45 1446.02 1140.35 1505.44 1270.46 1525.21C1377.84 1541.53 1464.97 1541.55 1558.75 1478.81C1564.53 1476.66 1574.74 1469.85 1579.43 1465.59C1632.73 1417.26 1676.04 1341.63 1665.58 1267.66C1660.74 1233.38 1643.37 1201.98 1632.39 1169.62C1623.3 1142.86 1618.17 1114.42 1606.58 1088.4C1603.12 1080.62 1587.28 1046.56 1580.42 1043.72C1571.61 1031.27 1562.18 1017.3 1551.72 1006.43C1477.51 929.292 1373.41 897.415 1268.47 916.431C1217.12 925.736 1169.65 947.972 1120.54 964.797C1094.07 973.657 1064.87 977.95 1037.49 980.884C1056.09 997.781 1075.67 1017.37 1095.44 1032.24C1140.99 1066.52 1191.85 1095.97 1233.68 1134.68C1335.28 1228.68 1402.29 1359.2 1532.53 1419.34C1540.64 1423.09 1552.05 1427.31 1559.64 1431.4ZM254.976 1036.94C265.716 1109.54 318.119 1186.63 375.767 1232.09C389.502 1242.93 422.954 1261.11 440.257 1264.1C462.227 1270.73 496.781 1274.58 519.475 1277.17C615.816 1288.17 708.414 1281.71 794.639 1233.48C853.931 1200.31 893.379 1162.75 921.564 1098.87C932.294 1074.55 941.634 1049.46 953.098 1025.5C961.122 1008.73 972.661 994.82 982.181 979.61C931.997 976.912 880.52 977.601 830.183 975.081C819.755 974.559 808.894 974.907 798.461 975.489C759.193 976.178 716.779 978.93 678.552 987.418C566.489 1012.3 464.851 1056.77 347.475 1052C308.45 1050.41 290.943 1043.08 254.976 1036.94ZM995.081 938.272C996.25 782.334 903.784 663.208 883.213 513.032C877.442 470.587 876.664 427.613 880.895 384.988C881.723 377.145 883.087 367.629 884.102 360.085C885.049 353.054 894.518 320.663 893.087 317.146L892.326 316.892C850.171 334.466 797.27 354.893 763.25 386.047C735.086 411.838 722.558 455.57 714.479 491.56C700.51 553.788 693.041 619.393 710.19 681.82C712.665 690.831 716.303 699.332 718.878 708.124C810.329 741.028 844.691 781.171 906.804 850.756C929.526 880.485 965.501 915.571 995.081 938.272ZM1571.84 989.095C1680.88 922.803 1705.93 839.76 1677.25 719.468C1677.98 711.435 1674.51 694.713 1672.35 686.876C1661.91 649.074 1643.62 620.036 1609.04 600.472C1565.36 575.76 1519.96 583.422 1472.72 576.169C1381.2 562.206 1292.85 588.697 1217.25 640.2C1213.49 642.765 1201.73 649.854 1199.71 653.5C1196.61 656.006 1192.96 658.796 1190 661.387C1188.69 796.785 1052.18 812.019 1025.14 938.576C1091 883.692 1148.14 861.115 1230.23 840.322C1274.48 828.785 1319.52 820.564 1364.99 815.725C1476.4 802.826 1542.64 799.803 1638.8 734.745C1644.48 732.986 1645.86 731.896 1650.53 728.174L1651.23 728.464L1651.74 727.261L1652.21 727.383C1638.75 742.673 1625.58 746.567 1612.73 757.949C1597.29 771.628 1560.22 782.086 1547.82 792.532C1524.99 801.661 1501.46 808.963 1477.47 814.371C1465.66 817.03 1452.55 818.036 1440.53 820.08C1367.57 832.487 1293.96 839.35 1222.76 860.692C1205.63 865.827 1188.8 869.271 1171.96 875.908C1153.3 882.348 1135.39 892.475 1117.71 900.631C1090.89 913.003 1070.49 928.575 1048.38 947.678C1046.13 949.629 1045.21 949.931 1045.08 952.819C1047.9 954.701 1055.5 953.585 1059.2 953.246C1116.81 947.978 1164.52 918.503 1219.86 903.584C1252.46 894.792 1275.92 889.099 1310.17 886.997C1388.21 882.558 1465.37 905.407 1528.41 951.626C1543.57 962.746 1557.65 976.536 1571.84 989.095ZM1257.8 1548.64C1180 1533.42 1128.44 1519.98 1060.96 1476.03C1053.02 1470.85 1045.43 1465.16 1038.23 1459.01C1034.24 1455.62 1014.62 1437.81 1012 1436.58L1012.07 1437.53C1013.78 1456.67 1021.21 1488.17 1024.62 1508.28C1035.25 1571.05 1035.61 1620.24 1014.36 1681.05C1009.6 1694.66 1003.16 1708.8 998.68 1721.67C1056.22 1722.44 1119.2 1697.72 1160.81 1658.11C1187.69 1637.42 1243.54 1578.28 1257.8 1548.64ZM714.828 1292.9C693.005 1350.59 709.07 1434.41 734.897 1489.06C761.445 1545.24 808.614 1615.7 855.984 1656.24C891.92 1690.57 945.622 1719.4 996.02 1720.65C1027.47 1625.77 1030.35 1549.88 997.473 1454.58C992.248 1439.44 992.34 1417.39 984.244 1402.48C973.737 1385.15 966.365 1373.85 957.943 1354.88C930.707 1293.51 933.963 1224.35 952.092 1161.01C965.912 1115.7 987.407 1069.52 994.453 1021.51C995.089 1017.18 997.023 1010.57 995.794 1006.6L994.57 1005.52C971.356 1033.6 958.129 1073.44 944.027 1107.41C911.265 1186.31 849.773 1236.75 773.552 1270.92C753.601 1279.86 734.274 1285.04 714.828 1292.9ZM898.641 314.526C872.581 424.946 891.646 528.712 931.124 633.007C964.657 721.598 1001 801.134 1012.96 896.523C1021.34 877.454 1037.16 848.382 1051.1 833.376C1108.92 768.591 1176.9 737.395 1166.57 632.709C1159.1 557.025 1133.21 481.901 1098.08 414.587C1069.59 362.191 1007.12 304.871 943.927 307.445C929.273 308.297 912.761 310.344 898.641 314.526ZM571.253 1000.26C649.973 973.896 731.976 956.144 815.129 955.9C869.761 955.74 922.317 959.151 977.057 957.664C952.407 936.897 928.642 915.348 907.271 891.145C888.361 869.729 871.396 846.93 851.933 825.886C790.251 759.192 706.359 713.12 612.66 722.403C584.309 725.178 556.282 730.611 528.947 738.63C490.629 749.914 456.448 766.066 420.691 783.369C375.196 805.385 331.261 826.381 298.86 867.009C259.716 916.092 247.742 971.676 254.606 1032.97C274.823 1036.61 293.631 1041.15 314.158 1043.47C372.884 1050.13 441.239 1038.54 497.928 1022.74C514.172 1018.07 530.315 1013.05 546.347 1007.7C550.288 1006.43 568.167 1000.56 571.253 1000.26Z"/><path fill="#424D3B" fill-opacity="0.58039218" d="M1199.71 653.5C1201.73 649.854 1213.49 642.765 1217.25 640.2C1292.85 588.697 1381.2 562.206 1472.72 576.169C1519.96 583.422 1565.36 575.76 1609.04 600.472C1643.62 620.036 1661.91 649.074 1672.35 686.876C1674.51 694.713 1677.98 711.435 1677.25 719.468L1674.9 713.125L1673.89 712.798C1645.83 735.706 1583.69 786.991 1547.82 792.532C1560.22 782.086 1597.29 771.628 1612.73 757.949C1625.58 746.567 1638.75 742.673 1652.21 727.383L1651.74 727.261L1651.23 728.464L1650.53 728.174C1645.86 731.896 1644.48 732.986 1638.8 734.745C1644.83 728.052 1667.08 715.619 1672.5 707.102C1674.55 703.897 1673.77 698.761 1672.7 695.127C1661.45 656.1 1647.07 624.488 1610.33 603.544C1573.91 582.779 1539.45 583.649 1499.58 581.034C1460.54 578.474 1424.2 571.103 1384.63 576.729C1349.36 581.744 1316.14 590.569 1283.57 605.263C1253.93 618.294 1227.72 636.316 1200.61 653.437C1200.31 653.458 1200.01 653.479 1199.71 653.5Z"/><path fill="#515B4B" fill-opacity="0.64313728" d="M1580.42 1043.72C1587.28 1046.56 1603.12 1080.62 1606.58 1088.4C1618.17 1114.42 1623.3 1142.86 1632.39 1169.62C1643.37 1201.98 1660.74 1233.38 1665.58 1267.66C1676.04 1341.63 1632.73 1417.26 1579.43 1465.59C1574.74 1469.85 1564.53 1476.66 1558.75 1478.81C1565.98 1470.66 1582.62 1461.56 1594.41 1447.98C1586.68 1445.12 1559.27 1438.47 1553.99 1434.46C1558.25 1432.81 1566.02 1439.54 1573.96 1438.93L1573.56 1439.04L1574.42 1437.71L1574.03 1439L1575.14 1437.93C1568.79 1437.06 1564.78 1435.25 1559.64 1431.4C1568.52 1433.5 1588.15 1441.03 1597.56 1444.4C1635.77 1400.84 1665.98 1345.53 1664.98 1286.18C1664.29 1245.47 1643.05 1207.65 1630.05 1170.07C1621 1143.91 1616 1115.63 1604.92 1090.2C1600.91 1081.01 1596.38 1072.06 1591.37 1063.38C1588.61 1058.65 1581.83 1048.44 1580.42 1043.72Z"/></svg>